# xmcd
#
# Track frame offsets: 
#        150
#        6614
#        35122
#        41200
#        66488
#        78363
#        106914
#        127573
#        155468
#        192664
#        202424
#        223543
#        254437
#
# Disc length: 3459 seconds
#
# Revision: 2
# Processed by: cddbd v1.5.2PL0 Copyright (c) Steve Scherf et al.
# Submitted via: ExactAudioCopy v0.99pb4
#
DISCID=c60d810d
DTITLE=Joshua Redman - Momentum
DYEAR=2005
DGENRE=Jazz
TTITLE0=Soundcheck
TTITLE1=Sweet Nasty
TTITLE2=Just a Moment
TTITLE3=Shut your Mouth
TTITLE4=The Crunge
TTITLE5=Riverwide
TTITLE6=Greasy G
TTITLE7=Lonely Woman
TTITLE8=Swunk
TTITLE9=Blowing Changes
TTITLE10=Double Jeopardy
TTITLE11=Put it in your Pocket
TTITLE12=Showtime
EXTD=YEAR: 2005
EXTT0=
EXTT1=
EXTT2=
EXTT3=
EXTT4=
EXTT5=
EXTT6=
EXTT7=
EXTT8=
EXTT9=
EXTT10=
EXTT11=
EXTT12=
PLAYORDER=
